<svg width="9" height="10" viewBox="0 0 9 10" fill="none" xmlns="http://www.w3.org/2000/svg">
<path d="M1.70173 8.21243C0.908795 7.40312 0.512329 6.32962 0.512329 4.9753C0.512329 3.68705 0.925313 2.63007 1.73463 1.80357C2.54382 0.961213 3.5848 0.548096 4.85601 0.548096C6.02875 0.548096 6.98661 0.911389 7.69734 1.65463C8.4242 2.39787 8.78736 3.37265 8.78736 4.61094C8.78736 5.00741 8.75432 5.37083 8.7378 5.65166H3.23829C3.42001 6.72503 3.99806 7.23753 5.1708 7.23753C5.92692 7.20857 6.64272 6.88904 7.16912 6.34548L8.62283 7.96412C7.7473 8.95528 6.57442 9.40104 4.90662 9.40104C3.56868 9.40157 2.49466 9.00537 1.70173 8.21243ZM3.28759 3.96787H6.07884C6.06285 3.04292 5.60031 2.56333 4.80737 2.56333C4.01444 2.56333 3.48582 3.04292 3.28759 3.96787Z" fill="#73F9BC"/>
</svg>
