<svg width="10" height="14" viewBox="0 0 10 14" fill="none" xmlns="http://www.w3.org/2000/svg">
<path d="M4.79884 13.0021C1.82534 13.0021 0.174194 12.2753 0.174194 10.9537C0.174194 10.2269 0.768893 9.66548 1.76006 9.46712C1.08303 9.0873 0.670043 8.49274 0.670043 7.84861C0.670043 6.9896 1.24809 6.34561 2.32198 5.9658C1.92865 5.71069 1.60595 5.36057 1.3837 4.94779C1.16145 4.535 1.04681 4.07286 1.05038 3.60405C1.04364 3.1832 1.13579 2.76665 1.31942 2.38791C1.50305 2.00918 1.77303 1.67884 2.10763 1.42349C2.81783 0.845312 3.74278 0.548096 4.86584 0.548096C6.05523 0.548096 7.06252 0.895001 7.77325 1.55551C8.2358 0.960815 8.92935 0.680251 9.9369 0.680251V2.79473C9.4846 2.77955 9.03271 2.83525 8.59764 2.9598C8.64839 3.17092 8.67604 3.38695 8.6801 3.60405C8.68865 4.02749 8.5974 4.44699 8.41373 4.82861C8.23006 5.21023 7.95913 5.54326 7.62286 5.80074C6.91266 6.37865 6.00422 6.65975 4.86465 6.65975C4.46469 6.6567 4.06612 6.61241 3.67525 6.52759C3.27879 6.64336 3.06403 6.7919 3.06403 7.00652C3.06403 7.32025 3.26227 7.41964 3.74133 7.41964H6.99499C8.89433 7.41964 9.96849 8.2949 9.96849 9.79843C9.96849 11.7964 8.01959 13.0021 4.79884 13.0021ZM4.83188 11.2018C6.59919 11.2018 7.44155 10.9211 7.44155 10.3428C7.44155 10.0289 7.16071 9.8472 6.6983 9.8472H4.25343C3.14689 9.8472 2.68435 10.0289 2.68435 10.4912C2.68475 10.9707 3.37843 11.2018 4.83188 11.2018ZM4.88143 2.36563C4.10515 2.36563 3.65913 2.81152 3.65913 3.60445C3.65913 4.38073 4.13819 4.85992 4.88143 4.85992C5.62467 4.85992 6.08722 4.39738 6.08722 3.60445C6.08722 2.81152 5.65771 2.3651 4.88143 2.3651V2.36563Z" fill="#73F9BC"/>
</svg>
