<svg width="40" height="39" viewBox="0 0 40 39" fill="none" xmlns="http://www.w3.org/2000/svg">
<path d="M39.2567 20.8438C39.1207 22.5749 38.751 24.2796 38.1576 25.9114C36.9373 29.2744 34.8037 32.2306 31.9964 34.4483C28.5871 37.1616 24.3567 38.6355 19.9994 38.628C17.4627 38.6281 14.9508 38.1285 12.6072 37.1578C10.2636 36.1871 8.13414 34.7642 6.34043 32.9705C4.54672 31.1768 3.1239 29.0474 2.15319 26.7038C1.18248 24.3601 0.682901 21.8483 0.682983 19.3116C0.683816 14.1893 2.71935 9.27705 6.34184 5.65547C9.96432 2.03389 14.8771 -0.000426345 19.9994 1.80027e-05C22.7187 -0.00369978 25.408 0.56845 27.8904 1.6788C30.3727 2.78915 32.5918 4.41255 34.4016 6.44217L30.6606 9.62619C29.3117 8.13883 27.666 6.95062 25.8297 6.13816C23.9935 5.32571 22.0074 4.90703 19.9994 4.90912C16.18 4.9104 12.5175 6.42818 9.81684 9.12885C7.11616 11.8295 5.59839 15.4921 5.59711 19.3114C5.59761 23.131 7.11513 26.794 9.81597 29.4948C12.5168 32.1956 16.1798 33.7132 19.9994 33.7137C23.4984 33.7202 26.8788 32.4455 29.5024 30.1303C30.8565 28.9433 31.9751 27.512 32.7999 25.9112H22.8632L23.8491 20.8436L39.2567 20.8438Z" fill="#73F9BC"/>
</svg>
